<svg xmlns="http://www.w3.org/2000/svg" viewBox="0 0 16 16">
  <g fill="#38342a">
    <rect width="1" height="1" x="9" y="1"/>
    <rect width="1" height="1" x="8" y="2"/>
    <rect width="1" height="1" x="10" y="2"/>
    <rect width="1" height="1" x="8" y="3"/>
    <rect width="1" height="1" x="11" y="3"/>
    <rect width="1" height="1" x="7" y="4"/>
    <rect width="1" height="1" x="9" y="4"/>
    <rect width="1" height="1" x="12" y="4"/>
    <rect width="1" height="1" x="6" y="5"/>
    <rect width="1" height="1" x="10" y="5"/>
    <rect width="1" height="1" x="13" y="5"/>
    <rect width="1" height="1" x="5" y="6"/>
    <rect width="1" height="1" x="11" y="6"/>
    <rect width="1" height="1" x="13" y="6"/>
    <rect width="1" height="1" x="14" y="6"/>
    <rect width="1" height="1" x="4" y="7"/>
    <rect width="1" height="1" x="12" y="7"/>
    <rect width="1" height="1" x="14" y="7"/>
    <rect width="1" height="1" x="3" y="8"/>
    <rect width="1" height="1" x="12" y="8"/>
    <rect width="1" height="1" x="13" y="8"/>
    <rect width="1" height="1" x="2" y="9"/>
    <rect width="1" height="1" x="11" y="9"/>
    <rect width="1" height="1" x="2" y="10"/>
    <rect width="1" height="1" x="10" y="10"/>
    <rect width="1" height="1" x="3" y="11"/>
    <rect width="1" height="1" x="9" y="11"/>
    <rect width="1" height="1" x="4" y="12"/>
    <rect width="1" height="1" x="8" y="12"/>
    <rect width="1" height="1" x="5" y="13"/>
    <rect width="1" height="1" x="7" y="13"/>
    <rect width="1" height="1" x="8" y="13"/>
    <rect width="1" height="1" x="6" y="14"/>
    <rect width="1" height="1" x="7" y="14"/>
  </g>
  <rect fill="#807a6d" width="1" height="1" x="13" y="7"/>
  <g fill="#9a927e">
    <rect width="1" height="1" x="3" y="10"/>
    <rect width="1" height="1" x="4" y="11"/>
    <rect width="1" height="1" x="5" y="12"/>
    <rect width="1" height="1" x="6" y="13"/>
  </g>
  <g fill="#aea694">
    <rect width="1" height="1" x="3" y="9"/>
    <rect width="1" height="1" x="4" y="10"/>
    <rect width="1" height="1" x="5" y="11"/>
    <rect width="1" height="1" x="6" y="12"/>
  </g>
  <g fill="#bcb29c">
    <rect width="1" height="1" x="10" y="4"/>
    <rect width="1" height="1" x="11" y="5"/>
    <rect width="1" height="1" x="12" y="6"/>
    <rect width="1" height="1" x="11" y="7"/>
    <rect width="1" height="1" x="10" y="8"/>
    <rect width="1" height="1" x="11" y="8"/>
    <rect width="1" height="1" x="10" y="9"/>
    <rect width="1" height="1" x="8" y="10"/>
    <rect width="1" height="1" x="9" y="10"/>
    <rect width="1" height="1" x="8" y="11"/>
    <rect width="1" height="1" x="7" y="12"/>
  </g>
  <g fill="#c6bca5">
    <rect width="1" height="1" x="9" y="3"/>
    <rect width="1" height="1" x="7" y="5"/>
    <rect width="1" height="1" x="8" y="6"/>
    <rect width="1" height="1" x="9" y="7"/>
    <rect width="1" height="1" x="10" y="7"/>
    <rect width="1" height="1" x="6" y="8"/>
    <rect width="1" height="1" x="7" y="9"/>
    <rect width="1" height="1" x="8" y="9"/>
  </g>
  <g fill="#dbd0b4">
    <rect width="1" height="1" x="9" y="2"/>
    <rect width="1" height="1" x="10" y="3"/>
    <rect width="1" height="1" x="8" y="4"/>
    <rect width="1" height="1" x="11" y="4"/>
    <rect width="1" height="1" x="8" y="5"/>
    <rect width="1" height="1" x="9" y="5"/>
    <rect width="1" height="1" x="12" y="5"/>
    <rect width="1" height="1" x="6" y="6"/>
    <rect width="1" height="1" x="7" y="6"/>
    <rect width="1" height="1" x="9" y="6"/>
    <rect width="1" height="1" x="10" y="6"/>
    <rect width="1" height="1" x="5" y="7"/>
    <rect width="1" height="1" x="6" y="7"/>
    <rect width="1" height="1" x="7" y="7"/>
    <rect width="1" height="1" x="8" y="7"/>
    <rect width="1" height="1" x="4" y="8"/>
    <rect width="1" height="1" x="5" y="8"/>
    <rect width="1" height="1" x="7" y="8"/>
    <rect width="1" height="1" x="8" y="8"/>
    <rect width="1" height="1" x="9" y="8"/>
    <rect width="1" height="1" x="4" y="9"/>
    <rect width="1" height="1" x="5" y="9"/>
    <rect width="1" height="1" x="6" y="9"/>
    <rect width="1" height="1" x="9" y="9"/>
    <rect width="1" height="1" x="5" y="10"/>
    <rect width="1" height="1" x="6" y="10"/>
    <rect width="1" height="1" x="7" y="10"/>
    <rect width="1" height="1" x="6" y="11"/>
    <rect width="1" height="1" x="7" y="11"/>
  </g>
</svg>
